<svg xmlns="http://www.w3.org/2000/svg" xmlns:xlink="http://www.w3.org/1999/xlink" width="1704" height="333" preserveAspectRatio="xMidYMid" viewBox="0 0 1704 333" style="z-index:1;display:block;background-color:transparent;animation-play-state:paused" >
    <g transform="" style="animation-play-state:paused" ><linearGradient id="lg-0.6246238314189516" x1="0" x2="1" y1="0" y2="0" style="animation-play-state:paused" ><stop stop-color="#ce0033" offset="0" style="animation-play-state:paused" ></stop>
    <stop stop-color="#ff5e5e" offset="1" style="animation-play-state:paused" ></stop></linearGradient>
    <path d="M0 0L0 266.48236083984375Q170.39999389648438 235.87850952148438 340.79998779296875 213.17572021484375T681.5999755859375 179.25404357910156T1022.4000244140625 203.12742614746094T1363.199951171875 164.766845703125T1704 91.19161987304688L1704 0z" fill="url(#lg-0.6246238314189516)" opacity="0.4" style="opacity:0.4;animation-play-state:paused" ></path>
    <path d="M0 0L0 263.1315612792969Q170.39999389648438 240.41766357421875 340.79998779296875 207.073974609375T681.5999755859375 166.5289764404297T1022.4000244140625 158.66615295410156T1363.199951171875 126.14820861816406T1704 120.7235107421875L1704 0z" fill="url(#lg-0.6246238314189516)" opacity="0.4" style="opacity:0.4;animation-play-state:paused" ></path>
    <path d="M0 0L0 252.62631225585938Q170.39999389648438 257.4057922363281 340.79998779296875 224.8961639404297T681.5999755859375 220.25921630859375T1022.4000244140625 172.89453125T1363.199951171875 136.88426208496094T1704 135.23829650878906L1704 0z" fill="url(#lg-0.6246238314189516)" opacity="0.4" style="opacity:0.4;animation-play-state:paused" ></path>
    <path d="M0 0L0 248.44290161132812Q170.39999389648438 262.1667175292969 340.79998779296875 225.83737182617188T681.5999755859375 210.3452606201172T1022.4000244140625 154.59130859375T1363.199951171875 148.46640014648438T1704 125.97747802734375L1704 0z" fill="url(#lg-0.6246238314189516)" opacity="0.4" style="opacity:0.4;animation-play-state:paused" ></path>
    <path d="M0 0L0 238.69871520996094Q170.39999389648438 246.9853973388672 340.79998779296875 203.3663787841797T681.5999755859375 190.9264373779297T1022.4000244140625 150.08111572265625T1363.199951171875 139.0772247314453T1704 120.8238754272461L1704 0z" fill="url(#lg-0.6246238314189516)" opacity="0.4" style="opacity:0.4;animation-play-state:paused" ></path></g>
</svg>